<svg width="448" height="512" viewBox="0 0 448 512" fill="none" xmlns="http://www.w3.org/2000/svg">
<path d="M320 332V340C320 346.6 314.6 352 308 352H240V420C240 426.6 234.6 432 228 432H220C213.4 432 208 426.6 208 420V352H140C133.4 352 128 346.6 128 340V332C128 325.4 133.4 320 140 320H208V252C208 245.4 213.4 240 220 240H228C234.6 240 240 245.4 240 252V320H308C314.6 320 320 325.4 320 332ZM448 112V464C448 490.5 426.5 512 400 512H48C21.5 512 0 490.5 0 464V112C0 85.5 21.5 64 48 64H96V12C96 5.4 101.4 0 108 0H116C122.6 0 128 5.4 128 12V64H320V12C320 5.4 325.4 0 332 0H340C346.6 0 352 5.4 352 12V64H400C426.5 64 448 85.5 448 112ZM32 112V160H416V112C416 103.2 408.8 96 400 96H48C39.2 96 32 103.2 32 112ZM416 464V192H32V464C32 472.8 39.2 480 48 480H400C408.8 480 416 472.8 416 464Z" fill="#ABABAB"/>
</svg>
